# xmcd
#
# Track frame offsets:
# 150
# 10088
# 19450
# 32173
# 43578
# 56233
# 71708
# 76588
# 94347
# 108153
# 122468
# 138539
# 149780
# 167390
# 184843
# 204115
# 213989
# 225456
# 242392
# 256116
# 269024
#
# Disc length: 3766 seconds
#
#
# Revision: 0
# Processed by: cddbd v1.5.2PL0 Copyright (c) Steve Scherf et al.
# Submitted via: FreeRIP 2.944 
#
DISCID=210eb415
DTITLE=Coro Brianza - Ve saludi... Brianza
DYEAR=2006
DGENRE=Pop-Folk
TTITLE0=Porta Calavena
TTITLE1=Quand je bois
TTITLE2=E col ciffolo del vapore
TTITLE3=Era sera
TTITLE4=Belle rose
TTITLE5=Joska la rossa
TTITLE6=La guarracino
TTITLE7=Trittico montanaro
TTITLE8=Rossinholet
TTITLE9=Montages Valdotaines
TTITLE10=La casa
TTITLE11=Il trenino
TTITLE12=Il tamburo della banda d'affori
TTITLE13=Kumbaya
TTITLE14=Le roi Renaud de guerre revient
TTITLE15=Passa il luni
TTITLE16=Balla Marietta
TTITLE17=La montanara
TTITLE18=Signore delle cime
TTITLE19=La contrà dell'acqua ciara
TTITLE20=I radiss
EXTD=
EXTT0=
EXTT1=
EXTT2=
EXTT3=
EXTT4=
EXTT5=
EXTT6=
EXTT7=
EXTT8=
EXTT9=
EXTT10=
EXTT11=
EXTT12=
EXTT13=
EXTT14=
EXTT15=
EXTT16=
EXTT17=
EXTT18=
EXTT19=
EXTT20=
PLAYORDER=
